<svg width="209" height="40" viewBox="0 0 209 40" fill="none" xmlns="http://www.w3.org/2000/svg">
<rect width="40" height="40" rx="8" fill="#3BDCCD" fill-opacity="0.2"/>
<path d="M20 29.75C19.2 29.1167 18.3333 28.625 17.4 28.275C16.4667 27.925 15.5 27.75 14.5 27.75C13.8 27.75 13.1125 27.8417 12.4375 28.025C11.7625 28.2083 11.1167 28.4667 10.5 28.8C10.15 28.9833 9.8125 28.975 9.4875 28.775C9.1625 28.575 9 28.2833 9 27.9V15.85C9 15.6667 9.04583 15.4917 9.1375 15.325C9.22917 15.1583 9.36667 15.0333 9.55 14.95C10.3167 14.55 11.1167 14.25 11.95 14.05C12.7833 13.85 13.6333 13.75 14.5 13.75C15.4667 13.75 16.4125 13.875 17.3375 14.125C18.2625 14.375 19.15 14.75 20 15.25V27.35C20.85 26.8167 21.7417 26.4167 22.675 26.15C23.6083 25.8833 24.55 25.75 25.5 25.75C26.1 25.75 26.6875 25.8 27.2625 25.9C27.8375 26 28.4167 26.15 29 26.35V14.35C29.25 14.4333 29.4958 14.5208 29.7375 14.6125C29.9792 14.7042 30.2167 14.8167 30.45 14.95C30.6333 15.0333 30.7708 15.1583 30.8625 15.325C30.9542 15.4917 31 15.6667 31 15.85V27.9C31 28.2833 30.8375 28.575 30.5125 28.775C30.1875 28.975 29.85 28.9833 29.5 28.8C28.8833 28.4667 28.2375 28.2083 27.5625 28.025C26.8875 27.8417 26.2 27.75 25.5 27.75C24.5 27.75 23.5333 27.925 22.6 28.275C21.6667 28.625 20.8 29.1167 20 29.75ZM22 24.75V15.25L27 10.25V20.25L22 24.75ZM18 26.375V16.475C17.45 16.2417 16.8792 16.0625 16.2875 15.9375C15.6958 15.8125 15.1 15.75 14.5 15.75C13.8833 15.75 13.2833 15.8083 12.7 15.925C12.1167 16.0417 11.55 16.2167 11 16.45V26.375C11.5833 26.1583 12.1625 26 12.7375 25.9C13.3125 25.8 13.9 25.75 14.5 25.75C15.1 25.75 15.6875 25.8 16.2625 25.9C16.8375 26 17.4167 26.1583 18 26.375ZM18 26.375V16.475V26.375Z" fill="#3BDCCD"/>
<path d="M52.432 28L56.848 11.2H62.368L66.784 28H63.52L62.608 24.304H56.608L55.696 28H52.432ZM57.352 21.376H61.864L59.824 13.192H59.392L57.352 21.376ZM67.696 28V16.096H70.672V17.44H71.104C71.28 16.96 71.572 16.608 71.98 16.384C72.388 16.16 72.864 16.048 73.408 16.048H74.848V18.736H73.36C72.592 18.736 71.96 18.94 71.464 19.348C70.968 19.756 70.72 20.384 70.72 21.232V28H67.696ZM81.16 28.336C80.008 28.336 78.964 28.096 78.028 27.616C77.092 27.136 76.352 26.44 75.808 25.528C75.264 24.616 74.992 23.512 74.992 22.216V21.88C74.992 20.584 75.264 19.48 75.808 18.568C76.352 17.656 77.092 16.96 78.028 16.48C78.964 16 80.008 15.76 81.16 15.76C82.296 15.76 83.272 15.96 84.088 16.36C84.904 16.76 85.564 17.308 86.068 18.004C86.572 18.7 86.904 19.488 87.064 20.368L84.136 20.992C84.072 20.512 83.928 20.08 83.704 19.696C83.48 19.312 83.164 19.008 82.756 18.784C82.348 18.56 81.84 18.448 81.232 18.448C80.624 18.448 80.076 18.58 79.588 18.844C79.1 19.108 78.716 19.5 78.436 20.02C78.156 20.54 78.016 21.176 78.016 21.928V22.168C78.016 22.92 78.156 23.556 78.436 24.076C78.716 24.596 79.1 24.988 79.588 25.252C80.076 25.516 80.624 25.648 81.232 25.648C82.144 25.648 82.836 25.412 83.308 24.94C83.78 24.468 84.08 23.848 84.208 23.08L87.136 23.776C86.928 24.624 86.572 25.396 86.068 26.092C85.564 26.788 84.904 27.336 84.088 27.736C83.272 28.136 82.296 28.336 81.16 28.336ZM92.128 28.336C91.28 28.336 90.52 28.188 89.848 27.892C89.176 27.596 88.644 27.164 88.252 26.596C87.86 26.028 87.664 25.336 87.664 24.52C87.664 23.704 87.86 23.02 88.252 22.468C88.644 21.916 89.188 21.5 89.884 21.22C90.58 20.94 91.376 20.8 92.272 20.8H95.536V20.128C95.536 19.568 95.36 19.108 95.008 18.748C94.656 18.388 94.096 18.208 93.328 18.208C92.576 18.208 92.016 18.38 91.648 18.724C91.28 19.068 91.04 19.512 90.928 20.056L88.144 19.12C88.336 18.512 88.644 17.956 89.068 17.452C89.492 16.948 90.06 16.54 90.772 16.228C91.484 15.916 92.352 15.76 93.376 15.76C94.944 15.76 96.184 16.152 97.096 16.936C98.008 17.72 98.464 18.856 98.464 20.344V24.784C98.464 25.264 98.688 25.504 99.136 25.504H100.096V28H98.08C97.488 28 97 27.856 96.616 27.568C96.232 27.28 96.04 26.896 96.04 26.416V26.392H95.584C95.52 26.584 95.376 26.836 95.152 27.148C94.928 27.46 94.576 27.736 94.096 27.976C93.616 28.216 92.96 28.336 92.128 28.336ZM92.656 25.888C93.504 25.888 94.196 25.652 94.732 25.18C95.268 24.708 95.536 24.08 95.536 23.296V23.056H92.488C91.928 23.056 91.488 23.176 91.168 23.416C90.848 23.656 90.688 23.992 90.688 24.424C90.688 24.856 90.856 25.208 91.192 25.48C91.528 25.752 92.016 25.888 92.656 25.888ZM101.104 28V16.096H104.08V17.656H104.512C104.704 17.24 105.064 16.844 105.592 16.468C106.12 16.092 106.92 15.904 107.992 15.904C108.92 15.904 109.732 16.116 110.428 16.54C111.124 16.964 111.664 17.548 112.048 18.292C112.432 19.036 112.624 19.904 112.624 20.896V28H109.6V21.136C109.6 20.24 109.38 19.568 108.94 19.12C108.5 18.672 107.872 18.448 107.056 18.448C106.128 18.448 105.408 18.756 104.896 19.372C104.384 19.988 104.128 20.848 104.128 21.952V28H101.104ZM120.112 28.336C118.928 28.336 117.884 28.084 116.98 27.58C116.076 27.076 115.372 26.364 114.868 25.444C114.364 24.524 114.112 23.44 114.112 22.192V21.904C114.112 20.656 114.36 19.572 114.856 18.652C115.352 17.732 116.048 17.02 116.944 16.516C117.84 16.012 118.88 15.76 120.064 15.76C121.232 15.76 122.248 16.02 123.112 16.54C123.976 17.06 124.648 17.78 125.128 18.7C125.608 19.62 125.848 20.688 125.848 21.904V22.936H117.184C117.216 23.752 117.52 24.416 118.096 24.928C118.672 25.44 119.376 25.696 120.208 25.696C121.056 25.696 121.68 25.512 122.08 25.144C122.48 24.776 122.784 24.368 122.992 23.92L125.464 25.216C125.24 25.632 124.916 26.084 124.492 26.572C124.068 27.06 123.504 27.476 122.8 27.82C122.096 28.164 121.2 28.336 120.112 28.336ZM117.208 20.68H122.776C122.712 19.992 122.436 19.44 121.948 19.024C121.46 18.608 120.824 18.4 120.04 18.4C119.224 18.4 118.576 18.608 118.096 19.024C117.616 19.44 117.32 19.992 117.208 20.68ZM130.696 28L135.112 11.2H140.632L145.048 28H141.784L140.872 24.304H134.872L133.96 28H130.696ZM135.616 21.376H140.128L138.088 13.192H137.656L135.616 21.376ZM145.96 28V16.096H148.936V17.44H149.368C149.544 16.96 149.836 16.608 150.244 16.384C150.652 16.16 151.128 16.048 151.672 16.048H153.112V18.736H151.624C150.856 18.736 150.224 18.94 149.728 19.348C149.232 19.756 148.984 20.384 148.984 21.232V28H145.96ZM159.424 28.336C158.272 28.336 157.228 28.096 156.292 27.616C155.356 27.136 154.616 26.44 154.072 25.528C153.528 24.616 153.256 23.512 153.256 22.216V21.88C153.256 20.584 153.528 19.48 154.072 18.568C154.616 17.656 155.356 16.96 156.292 16.48C157.228 16 158.272 15.76 159.424 15.76C160.56 15.76 161.536 15.96 162.352 16.36C163.168 16.76 163.828 17.308 164.332 18.004C164.836 18.7 165.168 19.488 165.328 20.368L162.4 20.992C162.336 20.512 162.192 20.08 161.968 19.696C161.744 19.312 161.428 19.008 161.02 18.784C160.612 18.56 160.104 18.448 159.496 18.448C158.888 18.448 158.34 18.58 157.852 18.844C157.364 19.108 156.98 19.5 156.7 20.02C156.42 20.54 156.28 21.176 156.28 21.928V22.168C156.28 22.92 156.42 23.556 156.7 24.076C156.98 24.596 157.364 24.988 157.852 25.252C158.34 25.516 158.888 25.648 159.496 25.648C160.408 25.648 161.1 25.412 161.572 24.94C162.044 24.468 162.344 23.848 162.472 23.08L165.4 23.776C165.192 24.624 164.836 25.396 164.332 26.092C163.828 26.788 163.168 27.336 162.352 27.736C161.536 28.136 160.56 28.336 159.424 28.336ZM166.696 28V11.2H169.72V17.56H170.152C170.28 17.304 170.48 17.048 170.752 16.792C171.024 16.536 171.388 16.324 171.844 16.156C172.3 15.988 172.88 15.904 173.584 15.904C174.512 15.904 175.324 16.116 176.02 16.54C176.716 16.964 177.256 17.548 177.64 18.292C178.024 19.036 178.216 19.904 178.216 20.896V28H175.192V21.136C175.192 20.24 174.972 19.568 174.532 19.12C174.092 18.672 173.464 18.448 172.648 18.448C171.72 18.448 171 18.756 170.488 19.372C169.976 19.988 169.72 20.848 169.72 21.952V28H166.696ZM180.28 28V16.096H183.304V28H180.28ZM181.792 14.704C181.248 14.704 180.788 14.528 180.412 14.176C180.036 13.824 179.848 13.36 179.848 12.784C179.848 12.208 180.036 11.744 180.412 11.392C180.788 11.04 181.248 10.864 181.792 10.864C182.352 10.864 182.816 11.04 183.184 11.392C183.552 11.744 183.736 12.208 183.736 12.784C183.736 13.36 183.552 13.824 183.184 14.176C182.816 14.528 182.352 14.704 181.792 14.704ZM187.96 28L184.168 16.096H187.384L190.144 25.792H190.576L193.336 16.096H196.552L192.76 28H187.96ZM202.504 28.336C201.32 28.336 200.276 28.084 199.372 27.58C198.468 27.076 197.764 26.364 197.26 25.444C196.756 24.524 196.504 23.44 196.504 22.192V21.904C196.504 20.656 196.752 19.572 197.248 18.652C197.744 17.732 198.44 17.02 199.336 16.516C200.232 16.012 201.272 15.76 202.456 15.76C203.624 15.76 204.64 16.02 205.504 16.54C206.368 17.06 207.04 17.78 207.52 18.7C208 19.62 208.24 20.688 208.24 21.904V22.936H199.576C199.608 23.752 199.912 24.416 200.488 24.928C201.064 25.44 201.768 25.696 202.6 25.696C203.448 25.696 204.072 25.512 204.472 25.144C204.872 24.776 205.176 24.368 205.384 23.92L207.856 25.216C207.632 25.632 207.308 26.084 206.884 26.572C206.46 27.06 205.896 27.476 205.192 27.82C204.488 28.164 203.592 28.336 202.504 28.336ZM199.6 20.68H205.168C205.104 19.992 204.828 19.44 204.34 19.024C203.852 18.608 203.216 18.4 202.432 18.4C201.616 18.4 200.968 18.608 200.488 19.024C200.008 19.44 199.712 19.992 199.6 20.68Z" fill="#3BDCCD"/>
</svg>
