<svg width="176" height="32" viewBox="0 0 176 32" fill="none" xmlns="http://www.w3.org/2000/svg">
<path d="M0.432 24L4.848 7.2H10.368L14.784 24H11.52L10.608 20.304H4.608L3.696 24H0.432ZM5.352 17.376H9.864L7.824 9.192H7.392L5.352 17.376ZM15.6 24V7.2H22.896C23.952 7.2 24.872 7.384 25.656 7.752C26.44 8.12 27.048 8.64 27.48 9.312C27.912 9.984 28.128 10.776 28.128 11.688V11.976C28.128 12.984 27.888 13.8 27.408 14.424C26.928 15.048 26.336 15.504 25.632 15.792V16.224C26.272 16.256 26.768 16.476 27.12 16.884C27.472 17.292 27.648 17.832 27.648 18.504V24H24.48V18.96C24.48 18.576 24.38 18.264 24.18 18.024C23.98 17.784 23.648 17.664 23.184 17.664H18.768V24H15.6ZM18.768 14.784H22.56C23.312 14.784 23.9 14.58 24.324 14.172C24.748 13.764 24.96 13.224 24.96 12.552V12.312C24.96 11.64 24.752 11.1 24.336 10.692C23.92 10.284 23.328 10.08 22.56 10.08H18.768V14.784ZM35.952 24.336C33.872 24.336 32.224 23.756 31.008 22.596C29.792 21.436 29.184 19.776 29.184 17.616V13.584C29.184 11.424 29.792 9.764 31.008 8.604C32.224 7.444 33.872 6.864 35.952 6.864C38.016 6.864 39.612 7.428 40.74 8.556C41.868 9.684 42.432 11.232 42.432 13.2V13.344H39.312V13.104C39.312 12.112 39.036 11.296 38.484 10.656C37.932 10.016 37.088 9.696 35.952 9.696C34.832 9.696 33.952 10.04 33.312 10.728C32.672 11.416 32.352 12.352 32.352 13.536V17.664C32.352 18.832 32.672 19.764 33.312 20.46C33.952 21.156 34.832 21.504 35.952 21.504C37.088 21.504 37.932 21.18 38.484 20.532C39.036 19.884 39.312 19.072 39.312 18.096V17.664H42.432V18C42.432 19.968 41.868 21.516 40.74 22.644C39.612 23.772 38.016 24.336 35.952 24.336ZM42.48 24L46.896 7.2H52.416L56.832 24H53.568L52.656 20.304H46.656L45.744 24H42.48ZM47.4 17.376H51.912L49.872 9.192H49.44L47.4 17.376ZM57.648 24V7.2H63.672L67.008 21.84H67.44V7.2H70.56V24H64.536L61.2 9.36H60.768V24H57.648ZM72.528 24V7.2H83.328V10.08H75.696V14.088H82.656V16.968H75.696V21.12H83.472V24H72.528ZM88.08 24L92.496 7.2H98.016L102.432 24H99.168L98.256 20.304H92.256L91.344 24H88.08ZM93 17.376H97.512L95.472 9.192H95.04L93 17.376ZM103.248 24V7.2H110.544C111.6 7.2 112.52 7.384 113.304 7.752C114.088 8.12 114.696 8.64 115.128 9.312C115.56 9.984 115.776 10.776 115.776 11.688V11.976C115.776 12.984 115.536 13.8 115.056 14.424C114.576 15.048 113.984 15.504 113.28 15.792V16.224C113.92 16.256 114.416 16.476 114.768 16.884C115.12 17.292 115.296 17.832 115.296 18.504V24H112.128V18.96C112.128 18.576 112.028 18.264 111.828 18.024C111.628 17.784 111.296 17.664 110.832 17.664H106.416V24H103.248ZM106.416 14.784H110.208C110.96 14.784 111.548 14.58 111.972 14.172C112.396 13.764 112.608 13.224 112.608 12.552V12.312C112.608 11.64 112.4 11.1 111.984 10.692C111.568 10.284 110.976 10.08 110.208 10.08H106.416V14.784ZM123.6 24.336C121.52 24.336 119.872 23.756 118.656 22.596C117.44 21.436 116.832 19.776 116.832 17.616V13.584C116.832 11.424 117.44 9.764 118.656 8.604C119.872 7.444 121.52 6.864 123.6 6.864C125.664 6.864 127.26 7.428 128.388 8.556C129.516 9.684 130.08 11.232 130.08 13.2V13.344H126.96V13.104C126.96 12.112 126.684 11.296 126.132 10.656C125.58 10.016 124.736 9.696 123.6 9.696C122.48 9.696 121.6 10.04 120.96 10.728C120.32 11.416 120 12.352 120 13.536V17.664C120 18.832 120.32 19.764 120.96 20.46C121.6 21.156 122.48 21.504 123.6 21.504C124.736 21.504 125.58 21.18 126.132 20.532C126.684 19.884 126.96 19.072 126.96 18.096V17.664H130.08V18C130.08 19.968 129.516 21.516 128.388 22.644C127.26 23.772 125.664 24.336 123.6 24.336ZM131.472 24V7.2H134.64V14.136H140.88V7.2H144.048V24H140.88V17.016H134.64V24H131.472ZM146.016 24V7.2H149.184V24H146.016ZM154.272 24L150 7.2H153.264L156.816 21.96H157.152L160.704 7.2H163.968L159.696 24H154.272ZM164.784 24V7.2H175.584V10.08H167.952V14.088H174.912V16.968H167.952V21.12H175.728V24H164.784Z" fill="#3BDCCD"/>
</svg>
